# xmcd
#
# Track frame offsets: 
#        150
#        19500
#        44700
#        59550
#        89025
#        109125
#        131850
#        164287
#        184275
#        218025
#
# Disc length: 3223 seconds
#
# Revision: 3
# Processed by: cddbd v1.5.2PL0 Copyright (c) Steve Scherf et al.
# Submitted via: ExactAudioCopyFreeDBPlugin 1.0
#
DISCID=970c950a
DTITLE=Siegel-Schwall Band, The - Reunion Concert
DYEAR=1988
DGENRE=Blues
TTITLE0=You Don't Love Me Like That
TTITLE1=Devil
TTITLE2=Leavin'
TTITLE3=Hey, Billie Jean
TTITLE4=I Wanna Love Ya
TTITLE5=I Think It Was The Wine
TTITLE6=I Don't Want You To Be My Girl
TTITLE7=When I've Been Drinkin'
TTITLE8=Hush, Hush
TTITLE9=Got My Mojo Working
EXTD=YEAR: 1988
EXTT0=
EXTT1=
EXTT2=
EXTT3=
EXTT4=
EXTT5=
EXTT6=
EXTT7=
EXTT8=
EXTT9=
PLAYORDER=
